<svg id="Capa_1" enable-background="new 0 0 510.295 510.295" height="512" viewBox="0 0 510.295 510.295" width="512" xmlns="http://www.w3.org/2000/svg"><g><g><g id="COLORS_38_"><path d="m487.795 448.422h-465.295c-8.284 0-15-6.716-15-15v-324.098c0-8.284 6.716-15 15-15h465.294c8.284 0 15 6.716 15 15v324.097c.001 8.285-6.715 15.001-14.999 15.001z" fill="#b6e6fa"/><path d="m487.795 94.324h-5v319.097c0 8.284-6.716 15-15 15h-460.295v5c0 8.284 6.716 15 15 15h465.294c8.284 0 15-6.716 15-15v-324.097c.001-8.284-6.715-15-14.999-15z" fill="#94b7f7"/><path d="m487.795 94.324h-465.295c-8.284 0-15 6.716-15 15v63.289h495.294v-63.289c.001-8.284-6.715-15-14.999-15z" fill="#f072ae"/><path d="m487.795 94.324h-5v58.289h-475.295v20h495.294v-63.289c.001-8.284-6.715-15-14.999-15z" fill="#ff3f62"/><path d="m403.95 334.324c-8.284 0-15 6.716-15 15v99.097h98.845c8.284 0 15-6.716 15-15v-99.097z" fill="#94b7f7"/><path d="m403.95 334.324c-8.284 0-15 6.716-15 15v99.097l113.845-114.097z" fill="#fff"/><path d="m403.95 334.324c-8.285 0-15 6.716-15 15v5h63.845l-63.845 63.987v30.111l113.845-114.097h-98.845z" fill="#d5f6ea"/><circle id="XMLID_208_" cx="256.147" cy="309.497" fill="#ffb655" r="51.662"/><path d="m281.282 264.363c4.153 7.441 6.528 16.008 6.528 25.134 0 28.532-23.13 51.662-51.662 51.662-9.126 0-17.694-2.375-25.134-6.528 8.83 15.822 25.728 26.528 45.134 26.528 28.532 0 51.662-23.13 51.662-51.662 0-19.406-10.706-36.304-26.528-45.134z" fill="#ff7956"/><path d="m107.237 61.873h27.97v64.336h-27.97z" fill="#ffc277"/><path d="m374.964 61.873h27.97v64.336h-27.97z" fill="#ffb655"/></g><g><path d="m99.854 440.922h15v15h-15z"/><path d="m487.795 86.824h-77.36v-32.451h-42.97v32.451h-224.758v-32.451h-42.971v32.451h-77.236c-12.406 0-22.5 10.094-22.5 22.5v324.098c0 12.406 10.094 22.5 22.5 22.5h62.722v-15h-62.722c-4.136 0-7.5-3.364-7.5-7.5v-253.309h381.058v-15h-381.058v-55.789c0-4.136 3.364-7.5 7.5-7.5h77.236v16.885h-14.514v15h72v-15h-14.515v-16.885h224.758v16.885h-14.516v15h72v-15h-14.515v-16.885h77.36c4.136 0 7.5 3.364 7.5 7.5v55.789h-54.237v15h54.237v146.711h-91.346c-12.406 0-22.5 10.094-22.5 22.5v91.598h-251.594v15h357.941c12.406 0 22.5-10.094 22.5-22.5v-324.098c0-12.406-10.094-22.5-22.5-22.5zm-373.059 31.885v-49.336h12.971v49.336zm267.729 0v-49.336h12.97v49.336zm21.484 223.115h80.738l-88.238 88.238v-80.738c0-4.136 3.364-7.5 7.5-7.5zm83.846 99.098h-80.99l88.49-88.49v80.99c0 4.136-3.364 7.5-7.5 7.5z"/><path d="m411.058 165.113h15v15h-15z"/><path d="m164.669 301.997v15h32.809c1.361 10.707 5.59 20.526 11.897 28.665l-23.217 23.217 10.607 10.607 23.217-23.217c8.139 6.308 17.958 10.536 28.665 11.897v32.81h15v-32.81c10.707-1.361 20.526-5.59 28.665-11.897l23.217 23.217 10.607-10.607-23.217-23.217c6.308-8.139 10.536-17.958 11.897-28.665h32.809v-15h-32.809c-1.361-10.707-5.59-20.526-11.897-28.665l23.217-23.217-10.607-10.607-23.217 23.217c-8.139-6.308-17.958-10.536-28.665-11.897v-32.809h-15v32.809c-10.707 1.361-20.526 5.59-28.665 11.897l-23.217-23.217-10.607 10.607 23.217 23.217c-6.308 8.139-10.536 17.958-11.897 28.665zm91.478-36.662c24.351 0 44.162 19.812 44.162 44.162s-19.812 44.162-44.162 44.162-44.162-19.812-44.162-44.162 19.812-44.162 44.162-44.162z"/><path d="m30.058 195.279h105.149v15h-105.149z"/><g fill="#fff"><path d="m400.586 195.279h15v15h-15z"/><path d="m460.586 195.279h15v15h-15z"/><path d="m430.586 195.279h15v15h-15z"/></g></g></g></g></svg>